<svg xmlns="http://www.w3.org/2000/svg" viewBox="0 0 24 24" width="24" height="24">
    <!-- Base dark glass tint to ensure visibility on light backgrounds -->
    <rect x="0.5" y="0.5" width="23" height="23" rx="6" fill="#ffffff" fill-opacity="0.1" stroke="#ffffff" stroke-opacity="0.3" stroke-width="1" />
    <!-- Top glare highlight -->
    <path d="M 0.5 6.5 A 6 6 0 0 1 6.5 0.5 L 17.5 0.5 A 6 6 0 0 1 23.5 6.5 Q 12 11 0.5 6.5 Z" fill="#ffffff" fill-opacity="0.25" />
    <!-- Bottom soft highlight -->
    <path d="M 0.5 17.5 Q 12 14 23.5 17.5 A 6 6 0 0 1 17.5 23.5 L 6.5 23.5 A 6 6 0 0 1 0.5 17.5 Z" fill="#ffffff" fill-opacity="0.05" />
    <!-- Main white icon -->
    <g fill="none" stroke="#ffffff" stroke-width="1.8" stroke-linecap="round" stroke-linejoin="round">
      <path d="M15 14c.2-1 .7-1.7 1.5-2.5 1-.9 1.5-2.2 1.5-3.5A6 6 0 0 0 6 8c0 1 .2 2.2 1.5 3.5.7.9 1.3 1.5 1.5 2.5"/><path d="M9 18h6"/><path d="M10 22h4"/>
    </g>
  </svg>