<svg xmlns="http://www.w3.org/2000/svg" viewBox="0 0 24 24" width="24" height="24">
    <!-- Base dark glass tint to ensure visibility on light backgrounds -->
    <rect x="0.5" y="0.5" width="23" height="23" rx="6" fill="#ffffff" fill-opacity="0.1" stroke="#ffffff" stroke-opacity="0.3" stroke-width="1" />
    <!-- Top glare highlight -->
    <path d="M 0.5 6.5 A 6 6 0 0 1 6.5 0.5 L 17.5 0.5 A 6 6 0 0 1 23.5 6.5 Q 12 11 0.5 6.5 Z" fill="#ffffff" fill-opacity="0.25" />
    <!-- Bottom soft highlight -->
    <path d="M 0.5 17.5 Q 12 14 23.5 17.5 A 6 6 0 0 1 17.5 23.5 L 6.5 23.5 A 6 6 0 0 1 0.5 17.5 Z" fill="#ffffff" fill-opacity="0.05" />
    <!-- Main white icon -->
    <g fill="none" stroke="#ffffff" stroke-width="1.8" stroke-linecap="round" stroke-linejoin="round">
      <path d="m11 17 2 2a1 1 0 1 0 3-3"/><path d="m14 14 2.5 2.5a1 1 0 1 0 3-3l-3.88-3.88a3 3 0 0 0-4.24 0l-.88.88a1 1 0 1 1-3-3l2.81-2.81a5.79 5.79 0 0 1 7.06-.87l.47.28a2 2 0 0 0 1.42.25L21 4"/><path d="m21 3 1 11h-2"/><path d="M3 3 2 14l6.5 6.5a1 1 0 1 0 3-3"/><path d="M3 4h8"/>
    </g>
  </svg>