<svg xmlns="http://www.w3.org/2000/svg" viewBox="0 0 24 24" width="24" height="24">
    <!-- Base dark glass tint to ensure visibility on light backgrounds -->
    <rect x="0.5" y="0.5" width="23" height="23" rx="6" fill="#ffffff" fill-opacity="0.1" stroke="#ffffff" stroke-opacity="0.3" stroke-width="1" />
    <!-- Top glare highlight -->
    <path d="M 0.5 6.5 A 6 6 0 0 1 6.5 0.5 L 17.5 0.5 A 6 6 0 0 1 23.5 6.5 Q 12 11 0.5 6.5 Z" fill="#ffffff" fill-opacity="0.25" />
    <!-- Bottom soft highlight -->
    <path d="M 0.5 17.5 Q 12 14 23.5 17.5 A 6 6 0 0 1 17.5 23.5 L 6.5 23.5 A 6 6 0 0 1 0.5 17.5 Z" fill="#ffffff" fill-opacity="0.05" />
    <!-- Main white icon -->
    <g fill="none" stroke="#ffffff" stroke-width="1.8" stroke-linecap="round" stroke-linejoin="round">
      <path d="M18 22H4a2 2 0 0 1-2-2V6"/><path d="m22 13-1.296-1.296a2.41 2.41 0 0 0-3.408 0L11 18"/><circle cx="12" cy="8" r="2"/><rect width="16" height="16" x="6" y="2" rx="2"/>
    </g>
  </svg>